<svg xmlns="http://www.w3.org/2000/svg" width="207.747" height="231.244" viewBox="0 0 207.747 231.244">
  <g id="Group_521" data-name="Group 521" transform="translate(-131 -86)">
    <g id="Group_519" data-name="Group 519" transform="translate(131.146 272.714)">
      <path id="Path_16016" data-name="Path 16016" d="M255.062,957.489a3.359,3.359,0,0,0-1,2.565v4.57h7.69V971.7h-7.69v20.9H245.2V971.7h-4.011v-7.078H245.2v-4.961a10.273,10.273,0,0,1,3.094-7.831,11.4,11.4,0,0,1,8.167-2.924,13.616,13.616,0,0,1,5.516,1.17l-1.894,6.911a7.7,7.7,0,0,0-2.4-.445A3.663,3.663,0,0,0,255.062,957.489Zm25.413,34.222c-.073.035-.249.119-.528.249s-.484.222-.614.279l-.585.251c-.26.112-.475.2-.642.251l-.667.224a5.029,5.029,0,0,1-.781.194c-.242.037-.512.084-.808.139a7.787,7.787,0,0,1-.946.112c-.335.018-.671.028-1,.028a9.4,9.4,0,0,1-6.994-2.676,9.546,9.546,0,0,1-2.647-7.021V949.687h8.86v33.384a2.268,2.268,0,0,0,.753,1.784,2.866,2.866,0,0,0,1.978.669,10.287,10.287,0,0,0,3.177-.781Z" transform="translate(-241.185 -948.908)" fill="#30306d"/>
      <path id="Path_16017" data-name="Path 16017" d="M289.375,961.209a14.873,14.873,0,0,1,0,21.236,15.422,15.422,0,0,1-10.867,4.123,15.676,15.676,0,0,1-11.008-4.123,14.8,14.8,0,0,1,0-21.236,15.675,15.675,0,0,1,11.008-4.123A15.421,15.421,0,0,1,289.375,961.209Zm-6.13,15.8a7.728,7.728,0,0,0-.028-10.421,6.467,6.467,0,0,0-4.709-2.035,6.682,6.682,0,0,0-4.851,2.035,7.656,7.656,0,0,0-.027,10.421,6.657,6.657,0,0,0,4.878,2.035A6.435,6.435,0,0,0,283.245,977.009Z" transform="translate(-222.999 -942.094)" fill="#30306d"/>
      <path id="Path_16018" data-name="Path 16018" d="M310.5,985.459h-8.918v-2.676A11.323,11.323,0,0,1,293,986.295a10.263,10.263,0,0,1-7.886-3.2,11.9,11.9,0,0,1-2.981-8.444V957.481H291v15.27a5.839,5.839,0,0,0,1.338,3.985,4.37,4.37,0,0,0,3.456,1.533,5.143,5.143,0,0,0,4.262-1.923q1.534-1.922,1.533-5.879V957.481H310.5Z" transform="translate(-207.065 -941.765)" fill="#30306d"/>
      <path id="Path_16019" data-name="Path 16019" d="M321.7,957.492l-.39,8.917H319.7q-9.641,0-9.643,10.478v8.75h-8.917V957.658h8.917v5.351q3.456-5.741,9.643-5.742A8.208,8.208,0,0,1,321.7,957.492Z" transform="translate(-191.234 -941.943)" fill="#30306d"/>
      <path id="Path_16020" data-name="Path 16020" d="M323.133,951.721a4.913,4.913,0,0,1,1.478,3.565,4.7,4.7,0,0,1-1.478,3.538,5.124,5.124,0,0,1-3.707,1.422,5.029,5.029,0,0,1-3.677-1.422,4.749,4.749,0,0,1-1.448-3.538,5.18,5.18,0,0,1,8.832-3.565Zm-8.165,39.793V963.536h8.918v27.978Z" transform="translate(-180.266 -947.82)" fill="#30306d"/>
      <path id="Path_16021" data-name="Path 16021" d="M330.96,976.754q.558,3.288,4.961,3.289a4.785,4.785,0,0,0,2.647-.64,1.877,1.877,0,0,0,.975-1.589q0-1.559-2.786-2.062l-5.685-1.115q-8.137-1.5-8.136-8.136a8.273,8.273,0,0,1,3.344-6.885,13.787,13.787,0,0,1,8.693-2.59,15.4,15.4,0,0,1,8.5,2.174,9.21,9.21,0,0,1,4.207,5.852l-8.137,1.617a3.577,3.577,0,0,0-1.478-2.341,5.15,5.15,0,0,0-3.2-.948,3.728,3.728,0,0,0-2.424.64,1.959,1.959,0,0,0-.753,1.532q0,1.507,2.119,1.952l6.576,1.336a10.464,10.464,0,0,1,5.8,3.038,7.816,7.816,0,0,1,1.951,5.378,8,8,0,0,1-3.511,6.968,15.75,15.75,0,0,1-9.2,2.451,17.824,17.824,0,0,1-8.889-2.035,8.22,8.22,0,0,1-4.264-6.1Z" transform="translate(-173.63 -942.145)" fill="#30306d"/>
      <path id="Path_16022" data-name="Path 16022" d="M364.344,966.638a11.9,11.9,0,0,1,2.981,8.444v17.166h-8.862v-15.27a5.835,5.835,0,0,0-1.338-3.985,4.43,4.43,0,0,0-3.511-1.533,5.062,5.062,0,0,0-4.209,1.95q-1.529,1.95-1.533,5.852v12.986h-8.917V949.333h8.917v17.611a11.513,11.513,0,0,1,8.64-3.511A10.193,10.193,0,0,1,364.344,966.638Z" transform="translate(-159.723 -948.554)" fill="#30306d"/>
    </g>
    <g id="Group_520" data-name="Group 520" transform="translate(131 86)">
      <path id="Path_16023" data-name="Path 16023" d="M284.869,901.841a141.5,141.5,0,0,1,13.349-35.921c-11.575-4.973-22.143-6.226-29.115-2.257-8.959,5.1-13.533,19.7-13.655,37.467A102.951,102.951,0,0,1,284.869,901.841Z" transform="translate(-229.155 -835.179)" fill="#ff6953"/>
      <path id="Path_16024" data-name="Path 16024" d="M283.14,944.471c-10.678-18.757-15.877-41.995-15.742-61.439-11.525,1.568-20.486,5.6-24.136,12.057-9.861,17.452,15.408,58.955,48.8,77.823,20.51,11.589,39.305,11.93,53.047,6.433C326.159,983.593,300.313,974.638,283.14,944.471Z" transform="translate(-241.105 -817.081)" fill="#ffd561"/>
      <path id="Path_16025" data-name="Path 16025" d="M333.182,979.671c-.143,0-.29.013-.433.013-23.419,0-51.115-23.093-51.115-67.9a126.92,126.92,0,0,1,3.236-27.7,102.951,102.951,0,0,0-29.421-.711c-.136,19.445,5.063,42.682,15.742,61.439,17.173,30.167,43.019,39.122,61.969,34.873l.028-.011Z" transform="translate(-229.156 -817.42)" fill="#ffa300"/>
      <path id="Path_16026" data-name="Path 16026" d="M360.048,901.04c-.137-17.725-4.713-32.286-13.655-37.377-7.118-4.051-17.987-2.66-29.85,2.577a141.618,141.618,0,0,1,13.168,35.547A102.913,102.913,0,0,1,360.048,901.04Z" transform="translate(-178.251 -835.179)" fill="#ff6953"/>
      <path id="Path_16027" data-name="Path 16027" d="M399.371,894.989c-3.611-6.394-12.435-10.405-23.793-12.006.152,19.463-5.049,42.743-15.742,61.529-17.164,30.147-42.986,39.109-61.932,34.88,13.707,5.342,32.345,4.9,52.669-6.581C383.965,953.946,409.232,912.441,399.371,894.989Z" transform="translate(-193.781 -817.122)" fill="#ffd561"/>
      <path id="Path_16028" data-name="Path 16028" d="M359.861,944.874c10.693-18.787,15.894-42.066,15.742-61.529a102.909,102.909,0,0,0-30.337.748,126.939,126.939,0,0,1,3.248,27.754c0,44.506-27.322,67.577-50.638,67.887l.053.02C316.874,983.983,342.7,975.021,359.861,944.874Z" transform="translate(-193.805 -817.484)" fill="#ffa300"/>
      <path id="Path_16029" data-name="Path 16029" d="M348.008,878.117c-9.9-18.352-22.843-31.061-34.7-31.061-11.787,0-24.653,12.559-34.53,30.741,11.512,4.946,24.017,13.584,34.981,24.449C324.493,891.612,336.7,883.113,348.008,878.117Z" transform="translate(-209.716 -847.056)" fill="#d040ff"/>
      <path id="Path_16030" data-name="Path 16030" d="M302.8,909.162a123.877,123.877,0,0,1,17.027-20.888c-10.964-10.865-23.468-19.5-34.981-24.449A141.505,141.505,0,0,0,271.5,899.746,119.831,119.831,0,0,1,302.8,909.162Z" transform="translate(-215.783 -833.084)" fill="#ff3db9"/>
      <path id="Path_16031" data-name="Path 16031" d="M301.413,897.526c.9-1.584,1.866-3.144,2.858-4.691a119.834,119.834,0,0,0-31.3-9.415,126.917,126.917,0,0,0-3.236,27.7c0,44.809,27.7,67.9,51.115,67.9.143,0,.29-.011.433-.013a35.976,35.976,0,0,1-9.885-3.778C292.632,964.551,280.979,933.422,301.413,897.526Z" transform="translate(-217.254 -816.758)" fill="#ff6953"/>
      <path id="Path_16032" data-name="Path 16032" d="M314.741,908.788a119.764,119.764,0,0,1,30.535-9.241A141.62,141.62,0,0,0,332.109,864c-11.309,5-23.514,13.494-34.248,24.128A123.823,123.823,0,0,1,314.741,908.788Z" transform="translate(-193.817 -832.939)" fill="#ff3db9"/>
      <path id="Path_16033" data-name="Path 16033" d="M305.339,908.066a84.634,84.634,0,0,1,9.963-6.587c2.323-1.313,4.726-2.524,7.177-3.657a123.819,123.819,0,0,0-16.88-20.66,123.873,123.873,0,0,0-17.027,20.887c2.385,1.107,4.722,2.294,6.983,3.571A84.606,84.606,0,0,1,305.339,908.066Z" transform="translate(-201.556 -821.972)" fill="#ff007d"/>
      <path id="Path_16034" data-name="Path 16034" d="M292.418,958.668c-8.781-15.542-5.324-41.315,19.115-60.1a84.628,84.628,0,0,0-9.784-6.446c-2.26-1.278-4.6-2.464-6.983-3.571-.992,1.547-1.956,3.107-2.858,4.691-20.435,35.9-8.781,67.025,9.982,77.705a35.974,35.974,0,0,0,9.885,3.778h.009l.018-.007C303.023,971.284,296.268,965.48,292.418,958.668Z" transform="translate(-207.749 -812.479)" fill="#ff3d69"/>
      <path id="Path_16035" data-name="Path 16035" d="M317.736,897.551c20.434,35.9,8.779,67.025-9.982,77.705a35.9,35.9,0,0,1-9.879,3.776h0c23.316-.31,50.638-23.38,50.638-67.887a126.939,126.939,0,0,0-3.248-27.754,119.761,119.761,0,0,0-30.535,9.241C315.774,894.253,316.79,895.89,317.736,897.551Z" transform="translate(-193.805 -816.782)" fill="#ff6953"/>
      <path id="Path_16036" data-name="Path 16036" d="M297.719,898.676c24.6,18.794,28.1,44.655,19.3,60.235-3.8,6.72-10.42,12.46-19.027,15.916l.017.005a35.9,35.9,0,0,0,9.879-3.776c18.761-10.68,30.416-41.81,9.982-77.705-.946-1.661-1.961-3.3-3.006-4.919-2.451,1.133-4.854,2.345-7.177,3.657A84.624,84.624,0,0,0,297.719,898.676Z" transform="translate(-193.935 -812.582)" fill="#ff3d69"/>
      <path id="Path_16037" data-name="Path 16037" d="M327.7,954.255c8.8-15.58,5.307-41.441-19.3-60.235-24.438,18.781-27.9,44.554-19.115,60.1,3.85,6.812,10.6,12.616,19.384,16.055C317.275,966.715,323.9,960.975,327.7,954.255Z" transform="translate(-204.615 -807.926)" fill="#ff007d"/>
    </g>
  </g>
</svg>
